<?xml version="1.0" encoding="utf-8"?>
<!-- Generator: Adobe Illustrator 27.0.0, SVG Export Plug-In . SVG Version: 6.00 Build 0)  -->
<svg version="1.1" xmlns="http://www.w3.org/2000/svg" xmlns:xlink="http://www.w3.org/1999/xlink" x="0px" y="0px"
	 viewBox="0 0 595.3 841.9" style="enable-background:new 0 0 595.3 841.9;" xml:space="preserve">
<style type="text/css">
	.st0{display:none;}
	.st1{display:inline;}
	.st2{fill:#F9D1B9;stroke:#000000;stroke-miterlimit:10;}
	.st3{fill:#808285;stroke:#000000;stroke-miterlimit:10;}
	.st4{fill:#BEB8DA;stroke:#000000;stroke-miterlimit:10;}
	.st5{fill:#3C2415;stroke:#000000;stroke-miterlimit:10;}
	.st6{fill:#BEB8DA;}
	.st7{fill:none;stroke:#000000;stroke-miterlimit:10;}
	.st8{stroke:#000000;stroke-miterlimit:10;}
	.st9{fill:#F0B6BA;}
	.st10{fill:#414042;stroke:#000000;stroke-miterlimit:10;}
</style>
<g id="Layer_1" class="st0">
	<g id="Layer_3">
		
			<image style="display:inline;overflow:visible;enable-background:new    ;" width="494" height="506" xlink:href="78B25F38.png"  transform="matrix(1.205 0 0 1.205 0 81.8711)">
		</image>
	</g>
	<g id="Layer_2_00000096042682654184972540000017956895826678878359_" class="st1">
		<polygon class="st2" points="257,580.8 260.9,621.1 276.7,627.4 276.7,578.3 276.7,567.9 257,567.9 		"/>
		<polygon class="st2" points="341.9,576.5 338,616.8 322.1,623.1 322.1,574 322.1,563.6 341.9,563.6 		"/>
		<polygon class="st3" points="221.3,498.5 242.5,581.5 296.2,578.9 353.6,571.6 351,450 218.3,454.2 		"/>
		<path class="st4" d="M228.5,375c0,0,55.7-25.9,76.1-20.6c0,0,42,5.9,49.2-0.7l7.1-4.2l5.2-4.9l15.6,9.8c0,0-10,42.4-28,43.9
			l7.6,79.8L326,494.4l-5.2-24.5l-78.8,2.1c0,0-4.1,27.1,4.5,31.3l-35.9-6.8c0,0-1-111.2,10.8-114.8
			C221.4,381.6,222.4,376.2,228.5,375z"/>
		<path class="st2" d="M179.8,317c0,0-17.1-12.7-15.1,7.1c2,19.8,27.6,21.2,27.6,21.2l-9.4-32.4L179.8,317z"/>
		<path class="st2" d="M389.3,235.5"/>
		<path class="st5" d="M227.3,192.3c2.5-5.1,5.6-10.2,10-13.8c3.4-2.8,7.6-4.7,11.8-6.2c11.2-3.8,23.5-4.7,34.9-1.6
			c-6.4,3.7-12.5,7.8-18.2,12.3c-1.8,1.4-3.5,2.8-4.8,4.7c-4.1,6.1-1.7,14.9-5.5,21.3c-3.7,6.2-11.7,7.9-18.8,9
			c-6.6,1.1-14.1,3.3-15.2-4.8C220.5,206.6,224.4,198.1,227.3,192.3z"/>
		<path class="st6" d="M251.3,227.1l-23.1,4.6c-3.7,0.7-7.4-1.7-8.1-5.4l0,0c-0.7-3.7,1.7-7.4,5.4-8.1l23.1-4.6
			c3.7-0.7,7.4,1.7,8.1,5.4l0,0C257.4,222.7,255,226.4,251.3,227.1z"/>
		<path class="st2" d="M173,298.8c0,0,17.7,83,67.3,71c0,0,20.5,34.1,27.8,17c0,0,2.1-14.5,3.6-24.9c0,0,9.2-0.5,20.7-17.9
			c9.7-14.8,5.1-12.8,5.1-12.8s86.2-1,94.1-86.6c0,0-3.6-63.1-60-49.6c0,0-53,18.3-34.1,58.4c0,0-15.3-23-58.1-7.4
			c0,0-85.3-8.3-66.5,49.6"/>
		<path class="st7" d="M320.4,232.9c0,0,20.4-30.8,40.2,0c0,0,17.4,34.4-9.5,53c-1.4,1-3,1.9-4.6,2.8l-31.3,12.5
			c0,0-10.4-16.2,0-21.4s18.6-10.4,26.1-3.6c5.2,4.7,5.2,4.7,5.2,4.7l4.6,5"/>
		<g>
			<circle class="st8" cx="214.4" cy="313.9" r="3.9"/>
			<circle class="st8" cx="260.9" cy="293.4" r="3.9"/>
			<path class="st7" d="M228.6,299.9l3.9,8.6c0,0-10.7,8.7,2.8,7.5"/>
			<path class="st7" d="M239.4,336.9c0,0,9.9,3.5,14-6.4"/>
			<circle class="st9" cx="206.8" cy="335" r="10.3"/>
			<circle class="st9" cx="276.7" cy="309" r="15.6"/>
		</g>
		<path class="st5" d="M177.6,297.2c5.7-2.2,42.1-0.5,69.5-47.7c0.7-1.1,2.2-1.3,3.2-0.4c8.1,8.3,40.5,39.9,56.5,31.9
			c0.9-0.4,1.3-1.4,1-2.3c-2.7-10.1-20.1-68.1-56.1-50.4c-0.4,0.2-0.8,0.3-1.3,0.2c-7-1.3-72.5-14.4-81.4,59.2c0,0.3,0.1,0.6,0,0.9
			c-0.5,3.5-0.3,1.4,1.2,11.9c0.3,2,6.2,17.7,6.9,15.9l0.3-0.8C177.8,315,177.1,297.4,177.6,297.2z"/>
		<path class="st2" d="M292.4,391.5c-3.1,1.9-21.3-42.8,2.8-9.9l1-25c0,0,10.8-11.5,11.6,16.2c0,0,4.5-27.1,9.8-25
			c0,0,6.8-6.8,2.1,24c0,0,9.9-18.8,13.6-13.6c0,0,5.7,4.2-4.7,20.4l-2.1,3.6c0,0,8.6-6.8,11.9-5.2c0,0,10.3,2.4,0,9.8
			s-33,25.7-40.7,20C297.6,406.7,280.7,396.7,292.4,391.5z"/>
		<path class="st2" d="M366.4,336.7c-3.1,1.9-21.3-42.8,2.8-9.9l1-25c0,0,10.8-11.5,11.6,16.2c0,0,4.5-27.1,9.8-25
			c0,0,6.8-6.8,2.1,24c0,0,9.9-18.8,13.6-13.6c0,0,5.7,4.2-4.7,20.4l-2.1,3.6c0,0,8.6-6.8,11.9-5.2c0,0,10.3,2.4,0,9.8
			s-33,25.7-40.7,20C371.7,351.9,354.8,341.9,366.4,336.7z"/>
		<path class="st2" d="M184.6,423.9"/>
		<path class="st4" d="M257,403c0,0,14.1,9.9,25.9-2.9l7.3-7.3l16.7,13.9c0,0,3.4,29.7-34.6,32.4c-38.1,2.6-43.1-20.1-43.7-23.1"/>
		<line class="st7" x1="292.4" y1="518.3" x2="300.4" y2="578.3"/>
		<path class="st10" d="M263.1,622.7c0,0-1.3-0.2-3.3-0.5c-7.5-1-25.4-2.6-29.5,5.3c0,0-4.8,12.5,16.4,14.9h37.6l-3.1-35.2H257
			l-4.8,14"/>
		<path class="st10" d="M335.8,621.1c0,0,1.3-0.2,3.3-0.5c7.5-1,25.5-2.6,29.5,5.3c0,0,4.8,12.5-16.4,14.9h-37.6l3.1-35.2h24.2
			l4.8,14"/>
	</g>
</g>
<g id="Layer_2">
	<g>
		<line class="st7" x1="381.8" y1="193" x2="409" y2="163.9"/>
		<line class="st7" x1="395.4" y1="207.9" x2="424" y2="193"/>
		<line class="st7" x1="400" y1="224.9" x2="434" y2="224.9"/>
	</g>
</g>
</svg>
